<svg width="24" height="24" viewBox="0 0 24 24" fill="none" xmlns="http://www.w3.org/2000/svg">
<path d="M8.76805 2.19211C9.7986 2.05083 10.6645 2.6812 11.0743 3.50067L12.0829 5.51758C12.6425 6.63658 12.3212 7.94923 11.4726 8.77558C10.972 9.26293 10.4686 9.81988 10.1763 10.3112C10.1604 10.338 10.1507 10.3778 10.1596 10.4264C10.4294 11.8893 11.4212 13.3351 12.3056 14.3715C12.3847 14.4642 12.5238 14.5097 12.6675 14.4648L14.6551 13.8436C15.7542 13.5002 16.9487 13.9131 17.6011 14.8619L19.0396 16.9541C19.4299 17.5217 19.6269 18.292 19.3279 19.0324C19.0609 19.6936 18.5443 20.6481 17.6049 21.2823C16.63 21.9405 15.2944 22.1905 13.5472 21.5912C11.5947 20.9216 9.7499 19.2415 8.22045 17.0926C6.6818 14.9309 5.41545 12.2302 4.64732 9.41433C3.92195 6.75518 4.36036 4.966 5.391 3.81307C6.3854 2.7007 7.8105 2.32339 8.76805 2.19211ZM9.9563 4.05974C9.72815 3.60358 9.3203 3.37809 8.93785 3.43053C8.08735 3.54712 7.0223 3.86385 6.32295 4.64616C5.65985 5.38793 5.20095 6.69408 5.85325 9.08538C6.58545 11.7695 7.79145 14.3343 9.2388 16.3678C10.6954 18.4142 12.3503 19.8592 13.9528 20.4088C15.38 20.8983 16.2978 20.6566 16.9055 20.2463C17.5487 19.812 17.944 19.1213 18.1688 18.5644C18.2719 18.3091 18.2277 17.9795 18.0096 17.6623L16.5711 15.5701C16.2294 15.0731 15.6036 14.8568 15.0279 15.0367L13.0403 15.6579C12.4465 15.8434 11.7774 15.6781 11.3548 15.183C10.4344 14.1044 9.26175 12.4503 8.9304 10.653C8.86985 10.3248 8.9221 9.97473 9.10205 9.67223C9.4808 9.03543 10.0809 8.38588 10.6005 7.87993C11.1081 7.38578 11.2519 6.65063 10.9649 6.07663L9.9563 4.05974Z" fill="#323232"/>
</svg>
