<svg width="24" height="24" viewBox="0 0 24 24" fill="none" xmlns="http://www.w3.org/2000/svg">
<path d="M8.76805 2.19199C9.7986 2.05071 10.6645 2.68108 11.0743 3.50055L12.0829 5.51746C12.6425 6.63646 12.3212 7.94911 11.4726 8.77546C10.972 9.26281 10.4686 9.81976 10.1763 10.3111C10.1604 10.3379 10.1507 10.3777 10.1596 10.4263C10.4294 11.8892 11.4212 13.335 12.3056 14.3714C12.3847 14.4641 12.5238 14.5096 12.6675 14.4647L14.6551 13.8435C15.7542 13.5001 16.9487 13.913 17.6011 14.8618L19.0396 16.954C19.4299 17.5216 19.6269 18.2919 19.3279 19.0323C19.0609 19.6935 18.5443 20.648 17.6049 21.2822C16.63 21.9404 15.2944 22.1904 13.5472 21.5911C11.5947 20.9215 9.7499 19.2414 8.22045 17.0925C6.6818 14.9308 5.41545 12.2301 4.64732 9.41421C3.92195 6.75506 4.36036 4.96588 5.391 3.81295C6.3854 2.70058 7.8105 2.32327 8.76805 2.19199ZM9.9563 4.05962C9.72815 3.60346 9.3203 3.37797 8.93785 3.43041C8.08735 3.547 7.0223 3.86373 6.32295 4.64604C5.65985 5.38781 5.20095 6.69396 5.85325 9.08526C6.58545 11.7694 7.79145 14.3342 9.2388 16.3677C10.6954 18.4141 12.3503 19.8591 13.9528 20.4087C15.38 20.8982 16.2978 20.6565 16.9055 20.2462C17.5487 19.8119 17.944 19.1212 18.1688 18.5643C18.2719 18.309 18.2277 17.9794 18.0096 17.6622L16.5711 15.57C16.2294 15.073 15.6036 14.8567 15.0279 15.0366L13.0403 15.6578C12.4465 15.8433 11.7774 15.678 11.3548 15.1829C10.4344 14.1043 9.26175 12.4502 8.9304 10.6529C8.86985 10.3247 8.9221 9.97461 9.10205 9.67211C9.4808 9.03531 10.0809 8.38576 10.6005 7.87981C11.1081 7.38566 11.2519 6.65051 10.9649 6.07651L9.9563 4.05962Z" fill="#EAEAEA"/>
</svg>
