<svg width="24" height="24" viewBox="0 0 24 24" fill="none" xmlns="http://www.w3.org/2000/svg">
<path d="M10.2458 2.3999C5.93801 2.3999 2.44584 5.89208 2.44584 10.1999C2.44584 11.5811 2.80534 12.88 3.43614 14.0062L2.48125 16.5049C2.1293 17.4258 2.97648 18.3547 3.92582 18.0888L6.91068 17.2528C7.92253 17.7321 9.05366 17.9999 10.2458 17.9999C14.5536 17.9999 18.0459 14.5078 18.0459 10.1999C18.0459 5.89208 14.5536 2.3999 10.2458 2.3999ZM3.64584 10.1999C3.64584 6.55482 6.60075 3.5999 10.2458 3.5999C13.8909 3.5999 16.8459 6.55482 16.8459 10.1999C16.8459 13.845 13.8909 16.7999 10.2458 16.7999C9.16328 16.7999 8.14324 16.5397 7.24317 16.0791L7.03412 15.972L3.60218 16.9332L4.76511 13.8903L4.61116 13.6385C3.99886 12.6375 3.64584 11.4609 3.64584 10.1999ZM13.801 21.5999C11.4374 21.5999 9.31936 20.5486 7.88896 18.8881C8.56462 19.071 9.27182 19.1771 10.0006 19.1967C11.0751 19.9547 12.3861 20.3999 13.801 20.3999C14.8835 20.3999 15.9035 20.1397 16.8036 19.6791L17.0127 19.572L20.4447 20.5332L19.2816 17.4901L19.4356 17.2385C20.0479 16.2375 20.401 15.0609 20.401 13.7999C20.401 12.4145 19.9741 11.1289 19.2448 10.0672C19.2342 9.33788 19.1369 8.62955 18.9628 7.95206C20.5806 9.38125 21.601 11.4714 21.601 13.7999C21.601 15.1811 21.2415 16.4799 20.6106 17.6062L21.5656 20.1049C21.9174 21.0258 21.0703 21.9547 20.1209 21.6888L17.1361 20.8528C16.1243 21.3321 14.9931 21.5999 13.801 21.5999Z" fill="#EAEAEA"/>
</svg>
