<svg width="24" height="24" viewBox="0 0 24 24" fill="none" xmlns="http://www.w3.org/2000/svg">
<path d="M10.246 2.40002C5.93814 2.40002 2.44596 5.8922 2.44596 10.2C2.44596 11.5812 2.80547 12.8801 3.43626 14.0063L2.48137 16.5051C2.12942 17.4259 2.9766 18.3549 3.92594 18.0889L6.9108 17.2529C7.92265 17.7322 9.05378 18 10.246 18C14.5537 18 18.046 14.5079 18.046 10.2C18.046 5.8922 14.5537 2.40002 10.246 2.40002ZM3.64596 10.2C3.64596 6.55494 6.60087 3.60002 10.246 3.60002C13.891 3.60002 16.846 6.55494 16.846 10.2C16.846 13.8451 13.891 16.8 10.246 16.8C9.1634 16.8 8.14336 16.5399 7.24329 16.0792L7.03424 15.9721L3.6023 16.9333L4.76523 13.8904L4.61129 13.6386C3.99899 12.6376 3.64596 11.461 3.64596 10.2ZM13.8011 21.6C11.4375 21.6 9.31949 20.5487 7.88909 18.8883C8.56475 19.0711 9.27194 19.1772 10.0007 19.1968C11.0752 19.9548 12.3862 20.4 13.8011 20.4C14.8836 20.4 15.9036 20.1399 16.8037 19.6792L17.0128 19.5721L20.4448 20.5333L19.2817 17.4903L19.4357 17.2386C20.0481 16.2376 20.4011 15.061 20.4011 13.8C20.4011 12.4146 19.9743 11.129 19.2449 10.0673C19.2343 9.338 19.137 8.62967 18.9629 7.95218C20.5807 9.38137 21.6011 11.4715 21.6011 13.8C21.6011 15.1812 21.2416 16.48 20.6107 17.6063L21.5657 20.1051C21.9175 21.0259 21.0705 21.9549 20.121 21.6889L17.1363 20.8529C16.1244 21.3322 14.9932 21.6 13.8011 21.6Z" fill="#323232"/>
</svg>
