<svg width="52" height="52" viewBox="0 0 52 52" fill="none" xmlns="http://www.w3.org/2000/svg">
<g clip-path="url(#clip0_104_1334)">
<path d="M51.9805 26.6203C51.8135 33.1221 49.1849 39.441 44.4806 44.1494C39.478 49.152 32.9046 51.6533 26.3352 51.6533C19.7618 51.6533 13.1964 49.152 8.18979 44.1533C3.34227 39.3058 0.67395 32.8597 0.67395 26.0079C0.67395 19.1522 3.34227 12.7101 8.18979 7.86254C14.2025 1.84589 22.8517 -0.774712 31.1429 0.79606C29.087 3.16216 27.6793 6.10487 27.1981 9.34185C22.5335 9.10723 17.9007 10.8371 14.5365 14.2013C11.387 17.3508 9.64922 21.5422 9.64922 26C9.64922 30.4578 11.383 34.6492 14.5365 37.7987C21.0423 44.3045 31.6281 44.3045 38.1339 37.7947C40.6431 35.2854 42.2457 32.0683 42.7985 28.6604C43.1166 26.7198 43.0888 24.7155 42.6991 22.7431C43.1246 22.7948 43.554 22.8187 43.9915 22.8187C46.791 22.8187 49.352 21.7688 51.2926 20.035C51.8095 22.2182 52.0362 24.4292 51.9805 26.6203Z" fill="#006AC6"/>
<path d="M43.9954 18.0189C47.4062 18.0189 50.1711 15.2539 50.1711 11.8432C50.1711 8.43241 47.4062 5.66745 43.9954 5.66745C40.5847 5.66745 37.8197 8.43241 37.8197 11.8432C37.8197 15.2539 40.5847 18.0189 43.9954 18.0189Z" fill="#006AC6"/>
</g>
<defs>
<clipPath id="clip0_104_1334">
<rect width="52" height="52" fill="white"/>
</clipPath>
</defs>
</svg>
