<svg width="143" height="32" viewBox="0 0 143 32" fill="none" xmlns="http://www.w3.org/2000/svg">
<path d="M8.91288 16.319C8.66666 16.319 8.42152 16.1959 8.17531 15.9754C7.75889 15.6071 7.24291 15.4594 6.53103 15.4594C4.81183 15.4594 3.75632 16.7118 3.75632 18.5285C3.75632 20.3954 4.7872 21.5001 6.48179 21.5001C7.29215 21.5001 7.88092 21.3032 8.37228 20.8579C8.61742 20.6127 8.83901 20.4896 9.08415 20.4896C9.23725 20.4868 9.38881 20.5206 9.52626 20.5881C10.0147 20.8272 10.5149 21.0416 11.0249 21.2304C11.3932 21.377 11.6148 21.5986 11.6148 21.893C11.6097 22.0707 11.5495 22.2424 11.4424 22.3844C10.2885 24.004 8.49645 24.6923 6.13924 24.6923C2.55416 24.6923 0.0492172 22.212 0.0492172 18.6762C0.0492172 14.846 2.52954 12.2426 6.38438 12.2426C8.5457 12.2426 10.0433 12.9309 11.2219 14.4039C11.3484 14.5361 11.4186 14.7123 11.4178 14.8952C11.4178 15.1896 11.1973 15.4305 10.8044 15.5825C10.3131 15.7784 9.84634 15.9754 9.37961 16.1959C9.23403 16.2682 9.07521 16.3101 8.91288 16.319Z" fill="#8071B4"/>
<path d="M19.4958 12.2426C23.3014 12.2426 26.1007 14.8952 26.1007 18.4514C26.1007 22.0354 23.3506 24.6881 19.5707 24.6881C15.8871 24.6881 12.9165 22.2324 12.9165 18.4514C12.9155 14.7689 15.8861 12.2426 19.4958 12.2426ZM19.5204 15.6563C17.8504 15.6563 16.6964 16.8103 16.6964 18.4803C16.6964 20.1738 17.8258 21.2786 19.545 21.2786C21.2642 21.2786 22.3197 20.3215 22.3197 18.4557C22.3197 16.6872 21.2139 15.6563 19.5204 15.6563Z" fill="#8071B4"/>
<path d="M29.0724 12.4395C29.6076 12.3903 30.6439 12.2426 31.0121 12.2426C31.5024 12.2426 31.7486 12.4888 31.7486 12.9309V13.7412C32.5836 12.538 34.3017 12.2426 35.0382 12.2426C35.4557 12.2426 35.7993 12.4395 35.7993 12.9309C35.7993 13.1514 35.7265 13.4212 35.6527 13.7873L35.4332 14.9198C35.3358 15.4101 35.1121 15.6563 34.8445 15.6563C34.6475 15.6563 34.4516 15.6317 34.3039 15.6317C32.6103 15.6317 31.922 16.7857 31.922 18.0628V23.685C31.922 24.2256 31.6009 24.5414 31.0656 24.5414H29.0959C28.5607 24.5414 28.2395 24.2203 28.2395 23.685V13.3237C28.2374 12.7831 28.5318 12.4641 29.0724 12.4395Z" fill="#8071B4"/>
<path d="M38.2058 12.2672C38.3949 12.2735 38.5836 12.2899 38.771 12.3164L40.2932 12.4395C40.8574 12.4641 41.1282 12.8078 41.079 13.373C40.9559 14.6736 40.882 16.1959 40.882 16.957C40.882 19.7071 41.2749 21.2786 43.3623 21.2786C45.4733 21.2786 45.8908 19.7317 45.8908 16.9816C45.8908 16.2205 45.7934 14.6983 45.6703 13.373C45.6211 12.8078 45.8908 12.4641 46.456 12.4395C47.0983 12.3903 47.4141 12.341 48.0275 12.2918C48.2727 12.2672 48.445 12.2426 48.5681 12.2426C49.0092 12.2426 49.2307 12.4888 49.3046 12.9801C49.5005 14.3546 49.6707 16.0535 49.6707 17.3499C49.6707 19.6589 49.1794 21.4017 48.2705 22.6049C47.215 24.0286 45.5451 24.6923 43.3848 24.6923C41.2727 24.6923 39.6274 24.0501 38.5676 22.7034C37.6106 21.5001 37.0946 19.7317 37.0946 17.3509C37.0946 16.0503 37.2659 14.3536 37.4629 12.9812C37.5431 12.5134 37.8129 12.2672 38.2058 12.2672Z" fill="#8071B4"/>
<path d="M51.588 30.7567C51.4409 30.8537 51.2721 30.9129 51.0966 30.929C50.8023 30.929 50.5817 30.7321 50.4094 30.3638C50.237 29.9956 50.0411 29.6027 49.8442 29.2344C49.7609 29.0843 49.7188 28.9148 49.7221 28.7431C49.7221 28.4733 49.8442 28.2528 50.0904 28.0312C51.7111 26.7059 52.2314 25.0114 52.2314 22.0643V13.2006C52.2314 12.66 52.5525 12.3442 53.0877 12.3442H54.9782C55.5188 12.3442 55.8346 12.6654 55.8346 13.2006V22.5557C55.8357 26.4105 54.534 28.8416 51.588 30.7567Z" fill="#8071B4"/>
<path d="M70.5935 24.4215C69.979 24.4462 69.66 24.4708 69.0455 24.52C68.7758 24.5446 68.7019 24.5693 68.5103 24.5693C68.0682 24.5693 67.8477 24.3241 67.8477 23.927V23.1905C66.9388 24.1475 65.5879 24.6892 63.7959 24.6892C60.4313 24.6892 58.0741 22.2581 58.0741 18.5017C58.0741 14.7197 60.3339 12.2394 64.0903 12.2394C65.8095 12.2394 67.0876 12.8046 67.8477 13.4426V13.0776C67.8477 12.5423 68.1174 12.2672 68.6088 12.2918L69.0263 12.3411C69.5467 12.4178 70.0717 12.459 70.5978 12.4642C71.1619 12.4888 71.4541 12.8078 71.4541 13.3484V23.5384C71.452 24.0822 71.1576 24.3969 70.5935 24.4215ZM64.7979 21.4756C65.7313 21.4756 66.5663 21.1073 67.1058 20.4682C67.4987 19.9779 67.7203 19.3389 67.7203 18.5531C67.7203 17.6453 67.4505 16.8842 66.9838 16.3436C66.4678 15.7784 65.7313 15.4594 64.7979 15.4594C63.1043 15.4594 61.7534 16.4667 61.7534 18.5049C61.7534 20.5667 63.0519 21.4756 64.7979 21.4756Z" fill="#8071B4"/>
<path d="M57.5538 1.43277C59.0953 3.70114 56.2232 8.33316 54.0522 8.24109C51.9112 8.1501 49.4149 3.42388 51.1351 1.23794C52.5054 -0.503743 56.3409 -0.354944 57.5538 1.43277Z" fill="#FFDD00"/>
<path d="M75.3301 27.2458C75.5264 26.9514 75.7717 26.7797 76.0907 26.7797C76.2133 26.7797 76.3851 26.8288 76.5323 26.8778C78.4704 27.712 79.0837 27.761 80.5312 27.761C82.8619 27.761 83.328 26.1664 83.328 24.2037V23.0506C82.4939 24.1056 81.2917 24.5472 79.6971 24.5472C76.3115 24.5472 73.5637 22.1674 73.5637 18.3648C73.5637 14.5866 76.2133 12.1088 79.6971 12.1088C81.4144 12.1088 82.592 12.624 83.328 13.5317V12.9429C83.328 12.4277 83.5979 12.1333 84.0395 12.1333C84.1621 12.1333 84.3584 12.1578 84.5792 12.1824C84.9717 12.2314 85.5851 12.2805 85.9531 12.305C86.4928 12.3296 86.7872 12.6485 86.7872 13.1882V24.0074C86.7627 28.6688 84.7755 31.073 80.2368 31.073C78.7157 31.073 76.9003 30.6069 74.9621 29.6256C74.6432 29.4538 74.4715 29.2085 74.4715 28.9386C74.4715 28.7914 74.5205 28.6197 74.6187 28.448L75.3301 27.2458ZM83.1317 18.4138C83.1317 17.5306 82.8619 16.7701 82.4203 16.2549C81.9296 15.7152 81.1936 15.3962 80.3104 15.3962C78.6667 15.3962 77.3419 16.3776 77.3419 18.3648C77.3419 20.3765 78.6176 21.2597 80.2859 21.2597C81.2181 21.2597 82.0032 20.9162 82.5184 20.2784C82.9109 19.7877 83.1317 19.1744 83.1317 18.4138ZM89.3312 13.1882C89.3312 12.6485 89.6256 12.3296 90.1653 12.305C90.7051 12.256 91.7355 12.1088 92.1035 12.1088C92.5941 12.1088 92.8395 12.3541 92.8395 12.7957V13.6053C93.6736 12.4032 95.3909 12.1088 96.1269 12.1088C96.544 12.1088 96.8875 12.305 96.8875 12.7957C96.8875 13.0165 96.8139 13.2864 96.7403 13.6544L96.5195 14.7829C96.4213 15.2736 96.2005 15.5189 95.9307 15.5189C95.7344 15.5189 95.5381 15.4944 95.3909 15.4944C93.6981 15.4944 93.0112 16.6474 93.0112 17.9232V23.5413C93.0112 24.081 92.6923 24.4 92.1525 24.4H90.1899C89.6501 24.4 89.3312 24.081 89.3312 23.5413V13.1882ZM97.7011 18.3157C97.7011 14.6357 100.67 12.1088 104.276 12.1088C108.079 12.1088 110.875 14.7584 110.875 18.3157C110.875 21.8976 108.128 24.5472 104.35 24.5472C100.67 24.5472 97.7011 22.0938 97.7011 18.3157ZM107.097 18.3157C107.097 16.5493 105.993 15.5189 104.301 15.5189C102.632 15.5189 101.479 16.672 101.479 18.3402C101.479 20.033 102.608 21.137 104.325 21.137C106.042 21.137 107.097 20.1802 107.097 18.3157ZM113.137 12.8448C113.211 12.3786 113.481 12.1333 113.873 12.1333C114.094 12.1333 114.168 12.1578 114.437 12.1824L115.958 12.305C116.523 12.3296 116.793 12.673 116.744 13.2373C116.621 14.5376 116.547 16.0586 116.547 16.8192C116.547 19.5669 116.94 21.137 119.025 21.137C121.135 21.137 121.552 19.5914 121.552 16.8437C121.552 16.0832 121.454 14.5621 121.331 13.2373C121.282 12.673 121.552 12.3296 122.116 12.305C122.754 12.256 123.073 12.2069 123.686 12.1578C123.932 12.1333 124.104 12.1088 124.226 12.1088C124.668 12.1088 124.889 12.3541 124.962 12.8448C125.158 14.2186 125.33 15.9114 125.33 17.2117C125.33 19.5178 124.84 21.2597 123.932 22.4618C122.877 23.8848 121.209 24.5472 119.05 24.5472C116.94 24.5472 115.296 23.9093 114.241 22.56C113.284 21.3578 112.769 19.5914 112.769 17.2117C112.769 15.9114 112.941 14.2186 113.137 12.8448ZM127.623 13.1882C127.623 12.6485 127.918 12.3541 128.457 12.305L129.979 12.1578C130.297 12.1333 130.445 12.1088 130.641 12.1088C130.911 12.1088 131.132 12.256 131.132 12.5994V13.3109C131.892 12.5504 133.119 12.1088 134.861 12.1088C138.639 12.1088 140.896 14.5866 140.896 18.3648C140.896 22.1184 138.393 24.5472 134.812 24.5472C133.192 24.5472 131.966 24.1056 131.132 23.0506V29.3312C131.132 29.8709 130.813 30.1898 130.273 30.1898H128.482C127.942 30.1898 127.623 29.8709 127.623 29.3312V13.1882ZM134.174 21.3333C135.916 21.3333 137.216 20.4256 137.216 18.3648C137.216 16.3285 135.867 15.3226 134.174 15.3226C133.241 15.3226 132.505 15.6416 131.99 16.2058C131.524 16.7456 131.254 17.5061 131.254 18.4138C131.254 19.1989 131.475 19.8368 131.868 20.3274C132.407 20.9653 133.241 21.3333 134.174 21.3333Z" fill="#706C7A"/>
</svg>
