<svg width="159" height="64" viewBox="0 0 159 64" fill="none" xmlns="http://www.w3.org/2000/svg">
<path d="M74.7446 36.8833H77.0392V52.4837H74.7446V36.8833Z" fill="black"/>
<path d="M77.747 26.8105C76.5302 26.1265 75.5718 25.1681 74.8838 23.9274C74.1959 22.6867 73.8499 21.3148 73.8499 19.7917C73.8499 18.2806 74.1879 16.9087 74.8719 15.668C75.5559 14.4392 76.5023 13.4689 77.7351 12.773C78.9519 12.089 80.312 11.751 81.835 11.751C85.4378 11.751 88.3289 13.624 89.3628 17.4733H86.6865C85.9031 15.3299 84.217 14.3835 81.8231 14.3596C78.7969 14.3398 76.5341 16.6542 76.5341 19.7877C76.5341 22.9213 78.7969 25.2397 81.8231 25.2159C84.2488 25.196 85.9667 24.1501 86.7422 21.8437H89.4185C88.4283 25.8481 85.5134 27.8285 81.835 27.8285C80.3398 27.8325 78.9678 27.4984 77.747 26.8105Z" fill="black"/>
<path d="M101.058 26.4645C100.024 27.3672 98.7954 27.8563 97.2604 27.8563C96.1191 27.8563 95.0414 27.5859 94.0831 27.0411C93.1366 26.4963 92.397 25.7368 91.8522 24.7784C91.3074 23.8081 91.0449 22.7424 91.0369 21.5812C90.9813 18.0539 93.7808 15.2584 97.2723 15.3021C98.7755 15.322 100.08 15.7793 101.157 16.7178V15.5447H103.758V27.6217H101.058V26.4645ZM93.6377 21.5772C93.6496 22.6668 93.9876 23.5576 94.7034 24.2853C95.4113 24.9932 96.302 25.3511 97.4035 25.363C99.5032 25.3829 101.157 23.7286 101.157 21.5772C101.157 19.4338 99.5151 17.7915 97.4035 17.7915C95.2721 17.7915 93.6178 19.4577 93.6377 21.5772Z" fill="black"/>
<path d="M110.125 26.7588V32.0557H107.556V15.5487H110.125V16.7337C111.202 15.7753 112.475 15.2981 113.954 15.2981C115.119 15.2981 116.173 15.5805 117.12 16.1372C118.066 16.682 118.818 17.4336 119.351 18.4118C119.883 19.3901 120.122 20.4916 120.134 21.6647C120.178 25.2437 117.458 28.0949 113.942 28.0512C112.519 28.0393 111.195 27.5859 110.125 26.7588ZM110.041 21.6647C110.061 22.7981 110.411 23.6888 111.131 24.4285C111.839 25.1483 112.722 25.5181 113.819 25.526C115.931 25.538 117.561 23.8598 117.561 21.6846C117.561 19.4975 115.931 17.8312 113.819 17.8312C111.704 17.8352 110.017 19.5213 110.041 21.6647Z" fill="black"/>
<path d="M122.882 11.3056H125.069V14.1886H122.882V11.3056ZM122.882 15.1589H125.069V27.5939H122.882V15.1589Z" fill="black"/>
<path d="M129.392 23.2196V18.1613H127.475V15.7475H129.392V13.0036L131.861 13.0155V15.7475H135.265V18.1613H131.861V23.1679C131.861 24.4643 132.569 25.1483 133.873 25.1483H135.265V27.5979H133.643C131.098 27.5939 129.392 25.8879 129.392 23.2196Z" fill="black"/>
<path d="M146.388 27.0411C145.398 27.5859 144.32 27.8484 143.135 27.8563C139.576 27.9001 136.717 25.1045 136.76 21.5772C136.772 20.4121 137.023 19.3265 137.576 18.3562C138.132 17.3978 138.904 16.6462 139.894 16.1054C140.86 15.5725 141.95 15.3021 143.135 15.3021C144.32 15.3021 145.398 15.5844 146.376 16.1173C147.342 16.6502 148.137 17.4018 148.694 18.3601C149.251 19.3265 149.521 20.4041 149.521 21.5812C149.521 22.7464 149.251 23.824 148.694 24.7904C148.141 25.7567 147.358 26.5083 146.388 27.0411ZM139.242 21.5772C139.262 22.5992 139.624 23.494 140.415 24.2853C141.242 25.1005 142.145 25.4823 143.135 25.4942C145.278 25.526 147.052 23.7405 147.052 21.5772C147.052 19.4338 145.302 17.704 143.135 17.704C140.968 17.704 139.218 19.4338 139.242 21.5772Z" fill="black"/>
<path d="M152.233 11.2539H154.421V27.5979H152.233V11.2539Z" fill="black"/>
<path d="M89.0447 45.7631C89.0447 43.6516 88.0982 42.6176 86.424 42.5977C84.8135 42.5858 83.4535 44.0572 83.4535 45.95V52.4876H80.9084V40.4345H83.2785V41.5121C84.1375 40.6532 85.2271 40.2078 86.595 40.1959C89.3906 40.176 91.5778 42.4267 91.5778 45.3536V52.4916H89.0447V45.7631Z" fill="black"/>
<path d="M97.9364 47.8628V52.4876H95.4113V36.1556H97.9364V44.4031L102.454 40.2356H105.731L99.4833 46.133L106.132 52.4876H102.804L97.9364 47.8628Z" fill="black"/>
<path d="M116.265 51.3543C115.231 52.257 114.002 52.7461 112.467 52.7461C111.326 52.7461 110.248 52.4757 109.29 51.9309C108.343 51.3861 107.604 50.6266 107.059 49.6682C106.514 48.6979 106.252 47.6322 106.244 46.471C106.188 42.9437 108.987 40.1481 112.479 40.1919C113.982 40.2118 115.286 40.6691 116.364 41.6075V40.4344H118.965V52.5115H116.265V51.3543ZM108.844 46.471C108.856 47.5606 109.194 48.4513 109.91 49.1791C110.618 49.8869 111.509 50.2448 112.61 50.2567C114.71 50.2766 116.364 48.6223 116.364 46.471C116.364 44.3276 114.722 42.6852 112.61 42.6852C110.475 42.6852 108.82 44.3475 108.844 46.471Z" fill="black"/>
<path d="M121.753 48.1451H124.234C124.321 49.5489 125.2 50.3204 126.64 50.3204C128.107 50.3204 128.847 49.6881 128.847 48.9604C128.847 48.6144 128.739 48.3957 128.564 48.2406C128.282 48.002 128.087 47.9026 127.682 47.7952C127.292 47.6958 126.835 47.6003 126.29 47.5009C125.864 47.4373 125.475 47.3578 125.137 47.2822C124.679 47.1629 124.373 47.0635 124.003 46.9243C123.828 46.8607 123.633 46.7812 123.482 46.6857C123.375 46.6102 123.22 46.4789 122.993 46.304C122.643 46.0415 122.46 45.7393 122.254 45.3019C122.059 44.9082 121.971 44.4111 121.971 43.8424C121.971 41.5917 123.952 40.1879 126.528 40.1879C129.161 40.1879 131.022 41.8223 131.098 44.594H128.684C128.608 43.2459 127.857 42.558 126.485 42.558C125.061 42.558 124.441 43.1346 124.441 43.7788C124.441 44.093 124.54 44.2799 124.667 44.3753C124.962 44.594 125.137 44.7014 125.538 44.7889C125.765 44.8525 125.972 44.8962 126.147 44.932L126.855 45.0513C127.813 45.2024 128.553 45.3655 129.105 45.5524C130.278 45.9341 131.185 46.7931 131.312 48.4593C131.324 48.6422 131.332 48.7854 131.332 48.8729C131.332 51.2787 129.32 52.7461 126.568 52.7461C123.808 52.7461 121.86 51.06 121.753 48.1451Z" fill="black"/>
<path d="M133.177 48.1451H135.659C135.746 49.5489 136.629 50.3204 138.065 50.3204C139.532 50.3204 140.272 49.6881 140.272 48.9604C140.272 48.6144 140.164 48.3957 139.989 48.2406C139.707 48.002 139.512 47.9026 139.107 47.7952C138.717 47.6958 138.26 47.6003 137.715 47.5009C137.289 47.4373 136.9 47.3578 136.561 47.2822C136.104 47.1629 135.798 47.0635 135.428 46.9243C135.253 46.8607 135.058 46.7812 134.907 46.6857C134.8 46.6102 134.645 46.4789 134.418 46.304C134.068 46.0415 133.885 45.7393 133.678 45.3019C133.484 44.9082 133.396 44.4111 133.396 43.8424C133.396 41.5917 135.376 40.1879 137.953 40.1879C140.586 40.1879 142.447 41.8223 142.522 44.594H140.109C140.033 43.2459 139.282 42.558 137.91 42.558C136.486 42.558 135.866 43.1346 135.866 43.7788C135.866 44.093 135.965 44.2799 136.092 44.3753C136.387 44.594 136.561 44.7014 136.963 44.7889C137.19 44.8525 137.397 44.8962 137.572 44.932L138.279 45.0513C139.238 45.2024 139.977 45.3655 140.53 45.5524C141.703 45.9341 142.61 46.7931 142.737 48.4593C142.749 48.6422 142.757 48.7854 142.757 48.8729C142.757 51.2787 140.745 52.7461 137.993 52.7461C135.233 52.7461 133.289 51.06 133.177 48.1451Z" fill="black"/>
<path d="M154.301 51.9309C153.311 52.4757 152.233 52.7382 151.048 52.7461C147.489 52.7899 144.63 49.9943 144.674 46.467C144.686 45.3019 144.936 44.2162 145.489 43.2459C146.046 42.2876 146.817 41.536 147.807 40.9952C148.774 40.4623 149.863 40.1879 151.048 40.1879C152.233 40.1879 153.311 40.4702 154.289 41.0031C155.256 41.536 156.051 42.2876 156.608 43.2459C157.164 44.2123 157.435 45.2899 157.435 46.467C157.435 47.6322 157.164 48.7098 156.608 49.6762C156.051 50.6465 155.268 51.398 154.301 51.9309ZM147.151 46.471C147.171 47.493 147.533 48.3877 148.324 49.1791C149.152 49.9943 150.054 50.376 151.044 50.388C153.188 50.4198 154.961 48.6343 154.961 46.471C154.961 44.3276 153.212 42.5977 151.044 42.5977C148.877 42.5977 147.131 44.3276 147.151 46.471Z" fill="black"/>
<path d="M52.9805 32.6204C52.8135 39.1222 50.1849 45.441 45.4806 50.1494C40.478 55.152 33.9046 57.6533 27.3352 57.6533C20.7618 57.6533 14.1964 55.152 9.18979 50.1534C4.34227 45.3058 1.67395 38.8597 1.67395 32.008C1.67395 25.1522 4.34227 18.7101 9.18979 13.8626C15.2025 7.84591 23.8517 5.2253 32.1429 6.79607C30.087 9.16217 28.6793 12.1049 28.1981 15.3419C23.5335 15.1072 18.9007 16.8371 15.5365 20.2013C12.387 23.3508 10.6492 27.5422 10.6492 32C10.6492 36.4578 12.383 40.6492 15.5365 43.7987C22.0423 50.3045 32.6281 50.3045 39.1339 43.7947C41.6431 41.2854 43.2457 38.0684 43.7985 34.6604C44.1166 32.7198 44.0888 30.7155 43.6991 28.7431C44.1246 28.7948 44.554 28.8187 44.9915 28.8187C47.791 28.8187 50.352 27.7689 52.2926 26.035C52.8095 28.2182 53.0362 30.4292 52.9805 32.6204Z" fill="#006AC6"/>
<path d="M44.9954 24.0189C48.4062 24.0189 51.1711 21.2539 51.1711 17.8432C51.1711 14.4324 48.4062 11.6675 44.9954 11.6675C41.5847 11.6675 38.8197 14.4324 38.8197 17.8432C38.8197 21.2539 41.5847 24.0189 44.9954 24.0189Z" fill="#006AC6"/>
<path d="M63.6857 0H62.5483V64H63.6857V0Z" fill="black"/>
</svg>
