<svg width="103" height="24" viewBox="0 0 103 24" fill="none" xmlns="http://www.w3.org/2000/svg">
<path d="M28.7803 17.2993V5.42889H36.2586V7.09074H30.6117V10.4992H35.7838V12.1611H30.6117V15.6374H36.3434V17.2993H28.7803Z" fill="#121212"/>
<path d="M41.763 17.5367C41.0733 17.5367 40.4346 17.3671 39.8467 17.0279C39.2589 16.6888 38.7841 16.2027 38.4223 15.5696C38.0718 14.9252 37.8966 14.1508 37.8966 13.2464V12.992C37.8966 12.0989 38.0718 11.3302 38.4223 10.6858C38.7727 10.0414 39.2419 9.54961 39.8298 9.21045C40.4176 8.8713 41.062 8.70172 41.763 8.70172C42.3056 8.70172 42.7578 8.76955 43.1196 8.90522C43.4926 9.04088 43.7979 9.21611 44.0353 9.4309C44.2727 9.6344 44.4536 9.84919 44.5779 10.0753H44.8492V5.42889H46.5959V17.2993H44.8832V16.1122H44.6118C44.397 16.474 44.0692 16.8018 43.6283 17.0958C43.1987 17.3897 42.5769 17.5367 41.763 17.5367ZM42.2547 16.0105C43.0122 16.0105 43.6339 15.7674 44.1201 15.2813C44.6175 14.7952 44.8662 14.0999 44.8662 13.1955V13.0429C44.8662 12.1498 44.6231 11.4602 44.137 10.9741C43.6509 10.4879 43.0235 10.2449 42.2547 10.2449C41.5086 10.2449 40.8868 10.4879 40.3894 10.9741C39.9033 11.4602 39.6602 12.1498 39.6602 13.0429V13.1955C39.6602 14.0999 39.9033 14.7952 40.3894 15.2813C40.8868 15.7674 41.5086 16.0105 42.2547 16.0105Z" fill="#121212"/>
<path d="M48.7601 13.1616V12.9072C48.7601 12.0254 48.9353 11.2736 49.2858 10.6519C49.6476 10.0301 50.1224 9.54961 50.7102 9.21045C51.2981 8.8713 51.9425 8.70172 52.6434 8.70172C53.4574 8.70172 54.0792 8.85434 54.5088 9.15958C54.9497 9.46482 55.2718 9.79267 55.4753 10.1431H55.7467V8.93913H57.4424V19.012C57.4424 19.5207 57.2898 19.9277 56.9846 20.2329C56.6906 20.5382 56.2837 20.6908 55.7636 20.6908H50.1337V19.1646H55.221C55.5488 19.1646 55.7127 18.995 55.7127 18.6559V15.9935H55.4414C55.3171 16.197 55.1418 16.4062 54.9157 16.621C54.6896 16.8357 54.39 17.011 54.017 17.1466C53.6552 17.2823 53.1974 17.3501 52.6434 17.3501C51.9425 17.3501 51.2924 17.1862 50.6933 16.8584C50.1054 16.5192 49.6363 16.0387 49.2858 15.417C48.9353 14.7839 48.7601 14.0321 48.7601 13.1616ZM53.1182 15.8239C53.8757 15.8239 54.4974 15.5865 54.9836 15.1117C55.481 14.6256 55.7297 13.9586 55.7297 13.1107V12.9581C55.7297 12.0876 55.4866 11.4206 55.0005 10.9571C54.5144 10.4823 53.887 10.2449 53.1182 10.2449C52.3721 10.2449 51.7503 10.4823 51.2529 10.9571C50.7668 11.4206 50.5237 12.0876 50.5237 12.9581V13.1107C50.5237 13.9586 50.7668 14.6256 51.2529 15.1117C51.7503 15.5865 52.3721 15.8239 53.1182 15.8239Z" fill="#121212"/>
<path d="M63.8465 17.5367C62.9986 17.5367 62.2581 17.3614 61.625 17.011C60.9919 16.6492 60.4945 16.1461 60.1327 15.5017C59.7823 14.8461 59.607 14.0886 59.607 13.2294V13.0259C59.607 12.1554 59.7823 11.398 60.1327 10.7536C60.4832 10.0979 60.9693 9.59483 61.5911 9.24437C62.2242 8.88261 62.9534 8.70172 63.7786 8.70172C64.5813 8.70172 65.2822 8.88261 65.8814 9.24437C66.4919 9.59483 66.9667 10.0866 67.3058 10.7197C67.645 11.3528 67.8146 12.0933 67.8146 12.9411V13.6025H61.3876C61.4102 14.3373 61.6533 14.9252 62.1168 15.3661C62.5916 15.7957 63.1795 16.0105 63.8804 16.0105C64.5361 16.0105 65.0278 15.8635 65.3557 15.5696C65.6948 15.2756 65.9549 14.9365 66.1357 14.5521L67.5771 15.2983C67.4189 15.6148 67.1871 15.9483 66.8819 16.2988C66.5879 16.6492 66.1979 16.9431 65.7118 17.1806C65.2257 17.418 64.6039 17.5367 63.8465 17.5367ZM61.4046 12.2628H66.034C65.9888 11.6297 65.7627 11.138 65.3557 10.7875C64.9487 10.4258 64.4174 10.2449 63.7617 10.2449C63.106 10.2449 62.569 10.4258 62.1507 10.7875C61.7437 11.138 61.495 11.6297 61.4046 12.2628Z" fill="#121212"/>
<path d="M69.8662 17.2993V5.42889H71.6976V10.3636H71.9689L76.3949 5.42889H78.7859L73.4273 11.2793L78.9724 17.2993H76.5136L71.9689 12.2628H71.6976V17.2993H69.8662Z" fill="#121212"/>
<path d="M82.9942 17.5367C82.395 17.5367 81.858 17.4349 81.3832 17.2314C80.9197 17.0279 80.5466 16.7284 80.264 16.3327C79.9927 15.937 79.857 15.4565 79.857 14.8913C79.857 14.3147 79.9927 13.8399 80.264 13.4668C80.5466 13.0825 80.9253 12.7942 81.4002 12.602C81.8863 12.4098 82.4346 12.3137 83.045 12.3137H85.5887V11.7711C85.5887 11.2849 85.4417 10.8949 85.1478 10.601C84.8539 10.307 84.4017 10.1601 83.7912 10.1601C83.192 10.1601 82.7342 10.3014 82.4176 10.584C82.1011 10.8667 81.8919 11.2341 81.7902 11.6863L80.1622 11.1606C80.2979 10.7084 80.5127 10.3014 80.8066 9.93963C81.1119 9.56656 81.5132 9.26698 82.0106 9.04088C82.5081 8.81477 83.1072 8.70172 83.8081 8.70172C84.8934 8.70172 85.747 8.9787 86.3687 9.53265C86.9905 10.0866 87.3014 10.8723 87.3014 11.8898V15.3322C87.3014 15.6713 87.4597 15.8409 87.7762 15.8409H88.4885V17.2993H87.1827C86.787 17.2993 86.4648 17.1975 86.2161 16.994C85.9674 16.7905 85.8431 16.5136 85.8431 16.1631V16.1122H85.5887C85.4983 16.2818 85.3626 16.4796 85.1817 16.7057C85.0008 16.9318 84.7352 17.1297 84.3847 17.2993C84.0342 17.4575 83.5707 17.5367 82.9942 17.5367ZM83.2485 16.0953C83.9495 16.0953 84.5147 15.8974 84.9443 15.5017C85.3739 15.0948 85.5887 14.5408 85.5887 13.8399V13.6703H83.1468C82.6833 13.6703 82.3102 13.7721 82.0276 13.9756C81.745 14.1677 81.6036 14.456 81.6036 14.8404C81.6036 15.2248 81.7506 15.53 82.0445 15.7561C82.3385 15.9822 82.7398 16.0953 83.2485 16.0953Z" fill="#121212"/>
<path d="M90.1867 17.2993V8.93913H91.8995V9.92267H92.1708C92.3064 9.57222 92.5212 9.31785 92.8152 9.15958C93.1204 8.99 93.4935 8.90522 93.9344 8.90522H94.9349V10.4823H93.8665C93.3013 10.4823 92.8378 10.6405 92.476 10.9571C92.1143 11.2623 91.9334 11.7371 91.9334 12.3815V17.2993H90.1867Z" fill="#121212"/>
<path d="M99.8818 17.2993C99.373 17.2993 98.966 17.1466 98.6608 16.8414C98.3669 16.5362 98.2199 16.1292 98.2199 15.6205V10.4144H95.9137V8.93913H98.2199V6.17503H99.9665V8.93913H102.459V10.4144H99.9665V15.3152C99.9665 15.6544 100.125 15.8239 100.441 15.8239H102.188V17.2993H99.8818Z" fill="#121212"/>
<rect x="5.69512" y="14.4" width="9.68075" height="9.68075" transform="rotate(-45 5.69512 14.4)" stroke="#121212" stroke-width="3.89572"/>
<rect x="5.69512" y="9.6" width="9.68075" height="9.68075" transform="rotate(-45 5.69512 9.6)" stroke="#121212" stroke-width="3.89572"/>
</svg>
