<svg width="24" height="24" viewBox="0 0 24 24" fill="none" xmlns="http://www.w3.org/2000/svg">
<g clip-path="url(#clip0_675_190)">
<path d="M19.8051 3.86038C17.654 1.70413 14.7893 0.518188 11.7449 0.518188C5.46094 0.518188 0.347545 5.63158 0.347545 11.9155C0.347545 13.9229 0.871205 15.884 1.86719 17.6142L0.25 23.5182L6.29263 21.9318C7.95603 22.8405 9.82991 23.318 11.7397 23.318H11.7449C18.0237 23.318 23.25 18.2046 23.25 11.9206C23.25 8.87622 21.9563 6.01663 19.8051 3.86038ZM11.7449 21.3979C10.0404 21.3979 8.37187 20.941 6.91897 20.0785L6.575 19.8731L2.99152 20.8126L3.94643 17.3164L3.72054 16.957C2.77076 15.4477 2.27277 13.7073 2.27277 11.9155C2.27277 6.6943 6.52366 2.44341 11.75 2.44341C14.281 2.44341 16.658 3.42913 18.4446 5.22087C20.2313 7.01261 21.3299 9.38962 21.3248 11.9206C21.3248 17.147 16.9661 21.3979 11.7449 21.3979ZM16.9404 14.3028C16.658 14.159 15.2565 13.4711 14.9946 13.3787C14.7328 13.2811 14.5429 13.2349 14.3529 13.5224C14.1629 13.8099 13.6188 14.4465 13.4493 14.6416C13.285 14.8316 13.1156 14.8573 12.8333 14.7135C11.1596 13.8767 10.0609 13.2195 8.95714 11.3251C8.66451 10.822 9.24978 10.8579 9.79397 9.76953C9.88638 9.57957 9.84018 9.41529 9.7683 9.27154C9.69643 9.12779 9.12656 7.72622 8.8904 7.15636C8.65938 6.60189 8.42321 6.6789 8.24866 6.66864C8.08438 6.65837 7.89442 6.65837 7.70446 6.65837C7.51451 6.65837 7.20647 6.73024 6.94464 7.01261C6.68281 7.30011 5.94866 7.98805 5.94866 9.38962C5.94866 10.7912 6.97031 12.1465 7.10893 12.3365C7.25268 12.5264 9.11629 15.4014 11.9759 16.6387C13.783 17.4191 14.4915 17.4858 15.3951 17.3523C15.9444 17.2702 17.079 16.6644 17.3152 15.997C17.5513 15.3296 17.5513 14.7597 17.4795 14.6416C17.4127 14.5133 17.2228 14.4414 16.9404 14.3028Z" fill="#323232"/>
</g>
<defs>
<clipPath id="clip0_675_190">
<rect width="24" height="24" fill="white"/>
</clipPath>
</defs>
</svg>
