<svg width="24" height="24" viewBox="0 0 24 24" fill="none" xmlns="http://www.w3.org/2000/svg">
<g clip-path="url(#clip0_675_228)">
<path d="M19.8051 3.86025C17.654 1.704 14.7893 0.518066 11.7449 0.518066C5.46094 0.518066 0.347545 5.63146 0.347545 11.9154C0.347545 13.9228 0.871205 15.8839 1.86719 17.614L0.25 23.5181L6.29263 21.9317C7.95603 22.8404 9.82991 23.3178 11.7397 23.3178H11.7449C18.0237 23.3178 23.25 18.2045 23.25 11.9205C23.25 8.8761 21.9563 6.0165 19.8051 3.86025ZM11.7449 21.3978C10.0404 21.3978 8.37187 20.9408 6.91897 20.0783L6.575 19.873L2.99152 20.8125L3.94643 17.3163L3.72054 16.9569C2.77076 15.4475 2.27277 13.7071 2.27277 11.9154C2.27277 6.69418 6.52366 2.44329 11.75 2.44329C14.281 2.44329 16.658 3.429 18.4446 5.22075C20.2313 7.01249 21.3299 9.3895 21.3248 11.9205C21.3248 17.1469 16.9661 21.3978 11.7449 21.3978ZM16.9404 14.3027C16.658 14.1589 15.2565 13.471 14.9946 13.3786C14.7328 13.281 14.5429 13.2348 14.3529 13.5223C14.1629 13.8098 13.6188 14.4464 13.4493 14.6415C13.285 14.8315 13.1156 14.8571 12.8333 14.7134C11.1596 13.8765 10.0609 13.2194 8.95714 11.325C8.66451 10.8219 9.24978 10.8578 9.79397 9.76941C9.88638 9.57945 9.84018 9.41516 9.7683 9.27141C9.69643 9.12766 9.12656 7.7261 8.8904 7.15624C8.65938 6.60177 8.42321 6.67878 8.24866 6.66851C8.08438 6.65825 7.89442 6.65825 7.70446 6.65825C7.51451 6.65825 7.20647 6.73012 6.94464 7.01249C6.68281 7.29999 5.94866 7.98793 5.94866 9.3895C5.94866 10.7911 6.97031 12.1464 7.10893 12.3364C7.25268 12.5263 9.11629 15.4013 11.9759 16.6386C13.783 17.419 14.4915 17.4857 15.3951 17.3522C15.9444 17.2701 17.079 16.6643 17.3152 15.9969C17.5513 15.3295 17.5513 14.7596 17.4795 14.6415C17.4127 14.5132 17.2228 14.4413 16.9404 14.3027Z" fill="#EAEAEA"/>
</g>
<defs>
<clipPath id="clip0_675_228">
<rect width="24" height="24" fill="white"/>
</clipPath>
</defs>
</svg>
